<mxfile host="app.diagrams.net" agent="Mozilla/5.0 (Windows NT 10.0; Win64; x64) AppleWebKit/537.36 (KHTML, like Gecko) Chrome/137.0.0.0 Safari/537.36" version="27.1.4">
  <diagram name="Page-1" id="lCqlza-vXSfvrX7V3lkn">
    <mxGraphModel dx="2840" dy="1603" grid="1" gridSize="10" guides="1" tooltips="1" connect="1" arrows="1" fold="1" page="1" pageScale="1" pageWidth="850" pageHeight="1100" math="0" shadow="0">
      <root>
        <mxCell id="0" />
        <mxCell id="1" parent="0" />
        <mxCell id="pQVU_d5V1BJkfLr8EDAB-1" value="" style="endArrow=none;html=1;rounded=0;entryX=0.5;entryY=0.5;entryDx=0;entryDy=0;entryPerimeter=0;exitX=0.5;exitY=0.5;exitDx=0;exitDy=0;exitPerimeter=0;" parent="1" source="pQVU_d5V1BJkfLr8EDAB-95" target="pQVU_d5V1BJkfLr8EDAB-99" edge="1">
          <mxGeometry width="50" height="50" relative="1" as="geometry">
            <mxPoint x="560" y="875" as="sourcePoint" />
            <mxPoint x="560" y="670" as="targetPoint" />
          </mxGeometry>
        </mxCell>
        <mxCell id="pQVU_d5V1BJkfLr8EDAB-2" value="" style="endArrow=none;html=1;rounded=0;entryX=0.5;entryY=0.5;entryDx=0;entryDy=0;entryPerimeter=0;exitX=0.5;exitY=0.5;exitDx=0;exitDy=0;exitPerimeter=0;" parent="1" source="pQVU_d5V1BJkfLr8EDAB-48" target="pQVU_d5V1BJkfLr8EDAB-99" edge="1">
          <mxGeometry width="50" height="50" relative="1" as="geometry">
            <mxPoint x="480" y="680" as="sourcePoint" />
            <mxPoint x="800" y="680" as="targetPoint" />
          </mxGeometry>
        </mxCell>
        <mxCell id="pQVU_d5V1BJkfLr8EDAB-3" value="" style="endArrow=none;html=1;rounded=0;entryX=0.5;entryY=0.5;entryDx=0;entryDy=0;entryPerimeter=0;exitX=0.5;exitY=0.5;exitDx=0;exitDy=0;exitPerimeter=0;" parent="1" source="pQVU_d5V1BJkfLr8EDAB-48" target="pQVU_d5V1BJkfLr8EDAB-83" edge="1">
          <mxGeometry width="50" height="50" relative="1" as="geometry">
            <mxPoint x="880" y="780" as="sourcePoint" />
            <mxPoint x="1180" y="780" as="targetPoint" />
          </mxGeometry>
        </mxCell>
        <mxCell id="pQVU_d5V1BJkfLr8EDAB-4" value="" style="endArrow=none;html=1;rounded=0;entryX=0.5;entryY=0.5;entryDx=0;entryDy=0;entryPerimeter=0;exitX=0.5;exitY=0.5;exitDx=0;exitDy=0;exitPerimeter=0;" parent="1" source="pQVU_d5V1BJkfLr8EDAB-83" target="pQVU_d5V1BJkfLr8EDAB-47" edge="1">
          <mxGeometry width="50" height="50" relative="1" as="geometry">
            <mxPoint x="970" y="770" as="sourcePoint" />
            <mxPoint x="1020" y="720" as="targetPoint" />
          </mxGeometry>
        </mxCell>
        <mxCell id="pQVU_d5V1BJkfLr8EDAB-5" value="" style="endArrow=none;html=1;rounded=0;entryX=0.5;entryY=0.5;entryDx=0;entryDy=0;entryPerimeter=0;exitX=0.5;exitY=0.5;exitDx=0;exitDy=0;exitPerimeter=0;" parent="1" source="pQVU_d5V1BJkfLr8EDAB-70" target="pQVU_d5V1BJkfLr8EDAB-82" edge="1">
          <mxGeometry width="50" height="50" relative="1" as="geometry">
            <mxPoint x="1180" y="920" as="sourcePoint" />
            <mxPoint x="1180" y="780" as="targetPoint" />
          </mxGeometry>
        </mxCell>
        <mxCell id="pQVU_d5V1BJkfLr8EDAB-6" value="" style="endArrow=none;html=1;rounded=0;entryX=0.5;entryY=0.5;entryDx=0;entryDy=0;entryPerimeter=0;exitX=0.5;exitY=0.5;exitDx=0;exitDy=0;exitPerimeter=0;" parent="1" source="pQVU_d5V1BJkfLr8EDAB-82" target="pQVU_d5V1BJkfLr8EDAB-47" edge="1">
          <mxGeometry width="50" height="50" relative="1" as="geometry">
            <mxPoint x="1070" y="940" as="sourcePoint" />
            <mxPoint x="1120" y="890" as="targetPoint" />
          </mxGeometry>
        </mxCell>
        <mxCell id="pQVU_d5V1BJkfLr8EDAB-7" value="" style="endArrow=none;html=1;rounded=0;exitX=0.5;exitY=0.5;exitDx=0;exitDy=0;exitPerimeter=0;entryX=0.5;entryY=0.5;entryDx=0;entryDy=0;entryPerimeter=0;" parent="1" source="pQVU_d5V1BJkfLr8EDAB-74" target="pQVU_d5V1BJkfLr8EDAB-70" edge="1">
          <mxGeometry width="50" height="50" relative="1" as="geometry">
            <mxPoint x="990" y="1860" as="sourcePoint" />
            <mxPoint x="1160" y="1360" as="targetPoint" />
          </mxGeometry>
        </mxCell>
        <mxCell id="pQVU_d5V1BJkfLr8EDAB-8" value="" style="endArrow=none;html=1;rounded=0;exitX=0.5;exitY=0.5;exitDx=0;exitDy=0;exitPerimeter=0;entryX=0.5;entryY=0.5;entryDx=0;entryDy=0;entryPerimeter=0;" parent="1" source="pQVU_d5V1BJkfLr8EDAB-46" target="pQVU_d5V1BJkfLr8EDAB-80" edge="1">
          <mxGeometry width="50" height="50" relative="1" as="geometry">
            <mxPoint x="1180" y="780" as="sourcePoint" />
            <mxPoint x="1370" y="900" as="targetPoint" />
          </mxGeometry>
        </mxCell>
        <mxCell id="pQVU_d5V1BJkfLr8EDAB-9" value="" style="endArrow=none;html=1;rounded=0;exitX=0.5;exitY=0.5;exitDx=0;exitDy=0;exitPerimeter=0;entryX=0.5;entryY=0.5;entryDx=0;entryDy=0;entryPerimeter=0;" parent="1" source="pQVU_d5V1BJkfLr8EDAB-47" target="pQVU_d5V1BJkfLr8EDAB-80" edge="1">
          <mxGeometry width="50" height="50" relative="1" as="geometry">
            <mxPoint x="1360" y="850" as="sourcePoint" />
            <mxPoint x="1410" y="800" as="targetPoint" />
          </mxGeometry>
        </mxCell>
        <mxCell id="pQVU_d5V1BJkfLr8EDAB-10" value="" style="endArrow=none;html=1;rounded=0;exitX=0.5;exitY=0.5;exitDx=0;exitDy=0;exitPerimeter=0;entryX=0.5;entryY=0.5;entryDx=0;entryDy=0;entryPerimeter=0;" parent="1" source="pQVU_d5V1BJkfLr8EDAB-57" target="pQVU_d5V1BJkfLr8EDAB-46" edge="1">
          <mxGeometry width="50" height="50" relative="1" as="geometry">
            <mxPoint x="2920" y="795" as="sourcePoint" />
            <mxPoint x="1830" y="495" as="targetPoint" />
          </mxGeometry>
        </mxCell>
        <mxCell id="pQVU_d5V1BJkfLr8EDAB-11" value="" style="endArrow=none;html=1;rounded=0;entryX=0.5;entryY=0.5;entryDx=0;entryDy=0;entryPerimeter=0;exitX=0.5;exitY=0.5;exitDx=0;exitDy=0;exitPerimeter=0;" parent="1" source="pQVU_d5V1BJkfLr8EDAB-78" target="pQVU_d5V1BJkfLr8EDAB-44" edge="1">
          <mxGeometry width="50" height="50" relative="1" as="geometry">
            <mxPoint x="850" y="900" as="sourcePoint" />
            <mxPoint x="900" y="850" as="targetPoint" />
          </mxGeometry>
        </mxCell>
        <mxCell id="pQVU_d5V1BJkfLr8EDAB-12" value="" style="endArrow=none;html=1;rounded=0;entryX=0.5;entryY=0.5;entryDx=0;entryDy=0;entryPerimeter=0;exitX=0.5;exitY=0.5;exitDx=0;exitDy=0;exitPerimeter=0;" parent="1" source="pQVU_d5V1BJkfLr8EDAB-78" target="pQVU_d5V1BJkfLr8EDAB-47" edge="1">
          <mxGeometry width="50" height="50" relative="1" as="geometry">
            <mxPoint x="940" y="840" as="sourcePoint" />
            <mxPoint x="900" y="850" as="targetPoint" />
          </mxGeometry>
        </mxCell>
        <mxCell id="pQVU_d5V1BJkfLr8EDAB-13" value="" style="endArrow=none;html=1;rounded=0;entryX=0.5;entryY=0.5;entryDx=0;entryDy=0;entryPerimeter=0;exitX=0.5;exitY=0.5;exitDx=0;exitDy=0;exitPerimeter=0;" parent="1" source="pQVU_d5V1BJkfLr8EDAB-47" target="pQVU_d5V1BJkfLr8EDAB-77" edge="1">
          <mxGeometry width="50" height="50" relative="1" as="geometry">
            <mxPoint x="1960" y="830" as="sourcePoint" />
            <mxPoint x="2010" y="780" as="targetPoint" />
          </mxGeometry>
        </mxCell>
        <mxCell id="pQVU_d5V1BJkfLr8EDAB-14" value="" style="endArrow=none;html=1;rounded=0;exitX=0.5;exitY=0.5;exitDx=0;exitDy=0;exitPerimeter=0;entryX=0.5;entryY=0.5;entryDx=0;entryDy=0;entryPerimeter=0;" parent="1" source="pQVU_d5V1BJkfLr8EDAB-76" target="pQVU_d5V1BJkfLr8EDAB-70" edge="1">
          <mxGeometry width="50" height="50" relative="1" as="geometry">
            <mxPoint x="740" y="1540" as="sourcePoint" />
            <mxPoint x="790" y="1490" as="targetPoint" />
          </mxGeometry>
        </mxCell>
        <mxCell id="pQVU_d5V1BJkfLr8EDAB-15" value="" style="endArrow=none;html=1;rounded=0;entryX=0.5;entryY=0.5;entryDx=0;entryDy=0;entryPerimeter=0;exitX=0.5;exitY=0.5;exitDx=0;exitDy=0;exitPerimeter=0;" parent="1" source="pQVU_d5V1BJkfLr8EDAB-75" target="pQVU_d5V1BJkfLr8EDAB-70" edge="1">
          <mxGeometry width="50" height="50" relative="1" as="geometry">
            <mxPoint x="740" y="1540" as="sourcePoint" />
            <mxPoint x="790" y="1490" as="targetPoint" />
          </mxGeometry>
        </mxCell>
        <mxCell id="pQVU_d5V1BJkfLr8EDAB-16" value="" style="endArrow=none;html=1;rounded=0;exitX=0.5;exitY=0.5;exitDx=0;exitDy=0;exitPerimeter=0;entryX=0.5;entryY=0.5;entryDx=0;entryDy=0;entryPerimeter=0;" parent="1" source="pQVU_d5V1BJkfLr8EDAB-81" target="pQVU_d5V1BJkfLr8EDAB-70" edge="1">
          <mxGeometry width="50" height="50" relative="1" as="geometry">
            <mxPoint x="740" y="1540" as="sourcePoint" />
            <mxPoint x="790" y="1490" as="targetPoint" />
          </mxGeometry>
        </mxCell>
        <mxCell id="pQVU_d5V1BJkfLr8EDAB-17" value="" style="endArrow=none;html=1;rounded=0;entryX=0.5;entryY=0.5;entryDx=0;entryDy=0;entryPerimeter=0;exitX=0.5;exitY=0.5;exitDx=0;exitDy=0;exitPerimeter=0;" parent="1" source="pQVU_d5V1BJkfLr8EDAB-73" target="pQVU_d5V1BJkfLr8EDAB-70" edge="1">
          <mxGeometry width="50" height="50" relative="1" as="geometry">
            <mxPoint x="740" y="1540" as="sourcePoint" />
            <mxPoint x="790" y="1490" as="targetPoint" />
          </mxGeometry>
        </mxCell>
        <mxCell id="pQVU_d5V1BJkfLr8EDAB-18" value="" style="endArrow=none;html=1;rounded=0;entryX=0.5;entryY=0.5;entryDx=0;entryDy=0;entryPerimeter=0;exitX=0.5;exitY=0.5;exitDx=0;exitDy=0;exitPerimeter=0;" parent="1" source="pQVU_d5V1BJkfLr8EDAB-81" target="pQVU_d5V1BJkfLr8EDAB-70" edge="1">
          <mxGeometry width="50" height="50" relative="1" as="geometry">
            <mxPoint x="740" y="1540" as="sourcePoint" />
            <mxPoint x="790" y="1490" as="targetPoint" />
          </mxGeometry>
        </mxCell>
        <mxCell id="pQVU_d5V1BJkfLr8EDAB-19" value="" style="endArrow=none;html=1;rounded=0;entryX=0.5;entryY=0.5;entryDx=0;entryDy=0;entryPerimeter=0;exitX=0.5;exitY=0.5;exitDx=0;exitDy=0;exitPerimeter=0;" parent="1" source="pQVU_d5V1BJkfLr8EDAB-72" target="pQVU_d5V1BJkfLr8EDAB-70" edge="1">
          <mxGeometry width="50" height="50" relative="1" as="geometry">
            <mxPoint x="740" y="1540" as="sourcePoint" />
            <mxPoint x="790" y="1490" as="targetPoint" />
          </mxGeometry>
        </mxCell>
        <mxCell id="pQVU_d5V1BJkfLr8EDAB-20" value="" style="endArrow=none;html=1;rounded=0;entryX=0.5;entryY=0.5;entryDx=0;entryDy=0;entryPerimeter=0;exitX=0.5;exitY=0.5;exitDx=0;exitDy=0;exitPerimeter=0;" parent="1" source="pQVU_d5V1BJkfLr8EDAB-70" target="pQVU_d5V1BJkfLr8EDAB-71" edge="1">
          <mxGeometry width="50" height="50" relative="1" as="geometry">
            <mxPoint x="740" y="1540" as="sourcePoint" />
            <mxPoint x="790" y="1490" as="targetPoint" />
          </mxGeometry>
        </mxCell>
        <mxCell id="pQVU_d5V1BJkfLr8EDAB-21" value="" style="endArrow=none;html=1;rounded=0;entryX=0.5;entryY=0.5;entryDx=0;entryDy=0;entryPerimeter=0;exitX=0.5;exitY=0.5;exitDx=0;exitDy=0;exitPerimeter=0;" parent="1" source="pQVU_d5V1BJkfLr8EDAB-69" target="pQVU_d5V1BJkfLr8EDAB-48" edge="1">
          <mxGeometry width="50" height="50" relative="1" as="geometry">
            <mxPoint x="160" y="1430" as="sourcePoint" />
            <mxPoint x="70" y="1510" as="targetPoint" />
          </mxGeometry>
        </mxCell>
        <mxCell id="pQVU_d5V1BJkfLr8EDAB-22" value="" style="endArrow=none;html=1;rounded=0;entryX=0.5;entryY=0.5;entryDx=0;entryDy=0;entryPerimeter=0;exitX=0.5;exitY=0.5;exitDx=0;exitDy=0;exitPerimeter=0;" parent="1" source="pQVU_d5V1BJkfLr8EDAB-68" target="pQVU_d5V1BJkfLr8EDAB-48" edge="1">
          <mxGeometry width="50" height="50" relative="1" as="geometry">
            <mxPoint x="160" y="1430" as="sourcePoint" />
            <mxPoint x="210" y="1380" as="targetPoint" />
          </mxGeometry>
        </mxCell>
        <mxCell id="pQVU_d5V1BJkfLr8EDAB-23" value="" style="endArrow=none;html=1;rounded=0;exitX=0.5;exitY=0.5;exitDx=0;exitDy=0;exitPerimeter=0;entryX=0.5;entryY=0.5;entryDx=0;entryDy=0;entryPerimeter=0;" parent="1" source="pQVU_d5V1BJkfLr8EDAB-67" target="pQVU_d5V1BJkfLr8EDAB-48" edge="1">
          <mxGeometry width="50" height="50" relative="1" as="geometry">
            <mxPoint x="160" y="1430" as="sourcePoint" />
            <mxPoint x="70" y="1500" as="targetPoint" />
          </mxGeometry>
        </mxCell>
        <mxCell id="pQVU_d5V1BJkfLr8EDAB-24" value="" style="endArrow=none;html=1;rounded=0;entryX=0.5;entryY=0.5;entryDx=0;entryDy=0;entryPerimeter=0;exitX=0.5;exitY=0.5;exitDx=0;exitDy=0;exitPerimeter=0;" parent="1" source="pQVU_d5V1BJkfLr8EDAB-48" target="pQVU_d5V1BJkfLr8EDAB-66" edge="1">
          <mxGeometry width="50" height="50" relative="1" as="geometry">
            <mxPoint x="60" y="1510" as="sourcePoint" />
            <mxPoint x="210" y="1380" as="targetPoint" />
          </mxGeometry>
        </mxCell>
        <mxCell id="pQVU_d5V1BJkfLr8EDAB-25" value="" style="endArrow=none;html=1;rounded=0;entryX=0.5;entryY=0.5;entryDx=0;entryDy=0;entryPerimeter=0;exitX=0.5;exitY=0.5;exitDx=0;exitDy=0;exitPerimeter=0;" parent="1" source="pQVU_d5V1BJkfLr8EDAB-48" target="pQVU_d5V1BJkfLr8EDAB-65" edge="1">
          <mxGeometry width="50" height="50" relative="1" as="geometry">
            <mxPoint x="160" y="1430" as="sourcePoint" />
            <mxPoint x="210" y="1380" as="targetPoint" />
          </mxGeometry>
        </mxCell>
        <mxCell id="pQVU_d5V1BJkfLr8EDAB-26" value="" style="endArrow=none;html=1;rounded=0;entryX=0.5;entryY=0.5;entryDx=0;entryDy=0;entryPerimeter=0;exitX=0.5;exitY=0.5;exitDx=0;exitDy=0;exitPerimeter=0;" parent="1" source="pQVU_d5V1BJkfLr8EDAB-48" target="pQVU_d5V1BJkfLr8EDAB-64" edge="1">
          <mxGeometry width="50" height="50" relative="1" as="geometry">
            <mxPoint x="160" y="1430" as="sourcePoint" />
            <mxPoint x="210" y="1380" as="targetPoint" />
          </mxGeometry>
        </mxCell>
        <mxCell id="pQVU_d5V1BJkfLr8EDAB-27" value="" style="endArrow=none;html=1;rounded=0;exitX=0.5;exitY=0.5;exitDx=0;exitDy=0;exitPerimeter=0;entryX=0.5;entryY=0.5;entryDx=0;entryDy=0;entryPerimeter=0;" parent="1" source="pQVU_d5V1BJkfLr8EDAB-63" target="pQVU_d5V1BJkfLr8EDAB-47" edge="1">
          <mxGeometry width="50" height="50" relative="1" as="geometry">
            <mxPoint x="1560" y="810" as="sourcePoint" />
            <mxPoint x="1610" y="760" as="targetPoint" />
          </mxGeometry>
        </mxCell>
        <mxCell id="pQVU_d5V1BJkfLr8EDAB-28" value="" style="endArrow=none;html=1;rounded=0;exitX=0.5;exitY=0.5;exitDx=0;exitDy=0;exitPerimeter=0;entryX=0.5;entryY=0.5;entryDx=0;entryDy=0;entryPerimeter=0;" parent="1" source="pQVU_d5V1BJkfLr8EDAB-62" target="pQVU_d5V1BJkfLr8EDAB-47" edge="1">
          <mxGeometry width="50" height="50" relative="1" as="geometry">
            <mxPoint x="1560" y="810" as="sourcePoint" />
            <mxPoint x="1610" y="760" as="targetPoint" />
          </mxGeometry>
        </mxCell>
        <mxCell id="pQVU_d5V1BJkfLr8EDAB-29" value="" style="endArrow=none;html=1;rounded=0;exitX=0.5;exitY=0.5;exitDx=0;exitDy=0;exitPerimeter=0;entryX=0.5;entryY=0.5;entryDx=0;entryDy=0;entryPerimeter=0;" parent="1" source="pQVU_d5V1BJkfLr8EDAB-61" target="pQVU_d5V1BJkfLr8EDAB-47" edge="1">
          <mxGeometry width="50" height="50" relative="1" as="geometry">
            <mxPoint x="1560" y="810" as="sourcePoint" />
            <mxPoint x="1610" y="760" as="targetPoint" />
          </mxGeometry>
        </mxCell>
        <mxCell id="pQVU_d5V1BJkfLr8EDAB-30" value="" style="endArrow=none;html=1;rounded=0;exitX=0.5;exitY=0.5;exitDx=0;exitDy=0;exitPerimeter=0;entryX=0.5;entryY=0.5;entryDx=0;entryDy=0;entryPerimeter=0;" parent="1" source="pQVU_d5V1BJkfLr8EDAB-60" target="pQVU_d5V1BJkfLr8EDAB-47" edge="1">
          <mxGeometry width="50" height="50" relative="1" as="geometry">
            <mxPoint x="1560" y="810" as="sourcePoint" />
            <mxPoint x="1610" y="760" as="targetPoint" />
          </mxGeometry>
        </mxCell>
        <mxCell id="pQVU_d5V1BJkfLr8EDAB-31" value="" style="endArrow=none;html=1;rounded=0;entryX=0.5;entryY=0.5;entryDx=0;entryDy=0;entryPerimeter=0;exitX=0.5;exitY=0.5;exitDx=0;exitDy=0;exitPerimeter=0;" parent="1" source="pQVU_d5V1BJkfLr8EDAB-47" target="pQVU_d5V1BJkfLr8EDAB-59" edge="1">
          <mxGeometry width="50" height="50" relative="1" as="geometry">
            <mxPoint x="1560" y="810" as="sourcePoint" />
            <mxPoint x="1610" y="760" as="targetPoint" />
          </mxGeometry>
        </mxCell>
        <mxCell id="pQVU_d5V1BJkfLr8EDAB-32" value="" style="endArrow=none;html=1;rounded=0;entryX=0.5;entryY=0.5;entryDx=0;entryDy=0;entryPerimeter=0;exitX=0.5;exitY=0.5;exitDx=0;exitDy=0;exitPerimeter=0;" parent="1" source="pQVU_d5V1BJkfLr8EDAB-47" target="pQVU_d5V1BJkfLr8EDAB-58" edge="1">
          <mxGeometry width="50" height="50" relative="1" as="geometry">
            <mxPoint x="1560" y="810" as="sourcePoint" />
            <mxPoint x="1610" y="760" as="targetPoint" />
          </mxGeometry>
        </mxCell>
        <mxCell id="pQVU_d5V1BJkfLr8EDAB-33" value="" style="endArrow=none;html=1;rounded=0;exitX=0.5;exitY=0.5;exitDx=0;exitDy=0;exitPerimeter=0;entryX=0.5;entryY=0.5;entryDx=0;entryDy=0;entryPerimeter=0;" parent="1" source="pQVU_d5V1BJkfLr8EDAB-53" target="pQVU_d5V1BJkfLr8EDAB-46" edge="1">
          <mxGeometry width="50" height="50" relative="1" as="geometry">
            <mxPoint x="3050" y="635" as="sourcePoint" />
            <mxPoint x="3100" y="585" as="targetPoint" />
          </mxGeometry>
        </mxCell>
        <mxCell id="pQVU_d5V1BJkfLr8EDAB-34" value="" style="endArrow=none;html=1;rounded=0;exitX=0.5;exitY=0.5;exitDx=0;exitDy=0;exitPerimeter=0;entryX=0.5;entryY=0.5;entryDx=0;entryDy=0;entryPerimeter=0;" parent="1" source="pQVU_d5V1BJkfLr8EDAB-56" target="pQVU_d5V1BJkfLr8EDAB-46" edge="1">
          <mxGeometry width="50" height="50" relative="1" as="geometry">
            <mxPoint x="3050" y="735" as="sourcePoint" />
            <mxPoint x="3100" y="685" as="targetPoint" />
          </mxGeometry>
        </mxCell>
        <mxCell id="pQVU_d5V1BJkfLr8EDAB-35" value="" style="endArrow=none;html=1;rounded=0;exitX=0.5;exitY=0.5;exitDx=0;exitDy=0;exitPerimeter=0;entryX=0.5;entryY=0.5;entryDx=0;entryDy=0;entryPerimeter=0;" parent="1" source="pQVU_d5V1BJkfLr8EDAB-55" target="pQVU_d5V1BJkfLr8EDAB-46" edge="1">
          <mxGeometry width="50" height="50" relative="1" as="geometry">
            <mxPoint x="3060" y="745" as="sourcePoint" />
            <mxPoint x="3110" y="695" as="targetPoint" />
          </mxGeometry>
        </mxCell>
        <mxCell id="pQVU_d5V1BJkfLr8EDAB-36" value="" style="endArrow=none;html=1;rounded=0;exitX=0.5;exitY=0.5;exitDx=0;exitDy=0;exitPerimeter=0;entryX=0.5;entryY=0.5;entryDx=0;entryDy=0;entryPerimeter=0;" parent="1" source="pQVU_d5V1BJkfLr8EDAB-79" target="pQVU_d5V1BJkfLr8EDAB-46" edge="1">
          <mxGeometry width="50" height="50" relative="1" as="geometry">
            <mxPoint x="3070" y="755" as="sourcePoint" />
            <mxPoint x="3120" y="705" as="targetPoint" />
          </mxGeometry>
        </mxCell>
        <mxCell id="pQVU_d5V1BJkfLr8EDAB-37" value="" style="endArrow=none;html=1;rounded=0;exitX=0.5;exitY=0.5;exitDx=0;exitDy=0;exitPerimeter=0;entryX=0.5;entryY=0.5;entryDx=0;entryDy=0;entryPerimeter=0;" parent="1" source="pQVU_d5V1BJkfLr8EDAB-79" target="pQVU_d5V1BJkfLr8EDAB-46" edge="1">
          <mxGeometry width="50" height="50" relative="1" as="geometry">
            <mxPoint x="3080" y="765" as="sourcePoint" />
            <mxPoint x="3130" y="715" as="targetPoint" />
          </mxGeometry>
        </mxCell>
        <mxCell id="pQVU_d5V1BJkfLr8EDAB-38" value="" style="endArrow=none;html=1;rounded=0;exitX=0.5;exitY=0.5;exitDx=0;exitDy=0;exitPerimeter=0;entryX=0.5;entryY=0.5;entryDx=0;entryDy=0;entryPerimeter=0;" parent="1" source="pQVU_d5V1BJkfLr8EDAB-54" target="pQVU_d5V1BJkfLr8EDAB-46" edge="1">
          <mxGeometry width="50" height="50" relative="1" as="geometry">
            <mxPoint x="3090" y="775" as="sourcePoint" />
            <mxPoint x="3140" y="725" as="targetPoint" />
          </mxGeometry>
        </mxCell>
        <mxCell id="pQVU_d5V1BJkfLr8EDAB-39" value="" style="endArrow=none;html=1;rounded=0;exitX=0.5;exitY=0.5;exitDx=0;exitDy=0;exitPerimeter=0;entryX=0.5;entryY=0.5;entryDx=0;entryDy=0;entryPerimeter=0;" parent="1" source="pQVU_d5V1BJkfLr8EDAB-49" target="pQVU_d5V1BJkfLr8EDAB-44" edge="1">
          <mxGeometry width="50" height="50" relative="1" as="geometry">
            <mxPoint x="300" y="1070" as="sourcePoint" />
            <mxPoint x="300" y="900" as="targetPoint" />
          </mxGeometry>
        </mxCell>
        <mxCell id="pQVU_d5V1BJkfLr8EDAB-40" value="" style="endArrow=none;html=1;rounded=0;exitX=0.5;exitY=0.5;exitDx=0;exitDy=0;exitPerimeter=0;entryX=0.5;entryY=0.5;entryDx=0;entryDy=0;entryPerimeter=0;" parent="1" source="pQVU_d5V1BJkfLr8EDAB-50" target="pQVU_d5V1BJkfLr8EDAB-44" edge="1">
          <mxGeometry width="50" height="50" relative="1" as="geometry">
            <mxPoint x="440" y="1070" as="sourcePoint" />
            <mxPoint x="310" y="900" as="targetPoint" />
          </mxGeometry>
        </mxCell>
        <mxCell id="pQVU_d5V1BJkfLr8EDAB-41" value="" style="endArrow=none;html=1;rounded=0;exitX=0.5;exitY=0.5;exitDx=0;exitDy=0;exitPerimeter=0;entryX=0.5;entryY=0.5;entryDx=0;entryDy=0;entryPerimeter=0;" parent="1" source="pQVU_d5V1BJkfLr8EDAB-51" target="pQVU_d5V1BJkfLr8EDAB-44" edge="1">
          <mxGeometry width="50" height="50" relative="1" as="geometry">
            <mxPoint x="580" y="1080" as="sourcePoint" />
            <mxPoint x="300" y="900" as="targetPoint" />
          </mxGeometry>
        </mxCell>
        <mxCell id="pQVU_d5V1BJkfLr8EDAB-42" value="" style="endArrow=none;html=1;rounded=0;exitX=0.5;exitY=0.5;exitDx=0;exitDy=0;exitPerimeter=0;entryX=0.5;entryY=0.5;entryDx=0;entryDy=0;entryPerimeter=0;" parent="1" source="pQVU_d5V1BJkfLr8EDAB-52" target="pQVU_d5V1BJkfLr8EDAB-44" edge="1">
          <mxGeometry width="50" height="50" relative="1" as="geometry">
            <mxPoint x="710" y="1070" as="sourcePoint" />
            <mxPoint x="300" y="900" as="targetPoint" />
          </mxGeometry>
        </mxCell>
        <mxCell id="pQVU_d5V1BJkfLr8EDAB-43" value="" style="endArrow=none;html=1;rounded=0;exitX=0.5;exitY=0.5;exitDx=0;exitDy=0;exitPerimeter=0;entryX=0.5;entryY=0.5;entryDx=0;entryDy=0;entryPerimeter=0;" parent="1" source="pQVU_d5V1BJkfLr8EDAB-45" target="pQVU_d5V1BJkfLr8EDAB-44" edge="1">
          <mxGeometry width="50" height="50" relative="1" as="geometry">
            <mxPoint x="530" y="1150" as="sourcePoint" />
            <mxPoint x="580" y="1100" as="targetPoint" />
          </mxGeometry>
        </mxCell>
        <mxCell id="pQVU_d5V1BJkfLr8EDAB-44" value="Guests" style="rounded=0;whiteSpace=wrap;html=1;points=[[0.5,0.5,0,0,0]];fillColor=#008a00;fontColor=#ffffff;strokeColor=#005700;" parent="1" vertex="1">
          <mxGeometry x="1760" y="1030" width="120" height="60" as="geometry" />
        </mxCell>
        <mxCell id="pQVU_d5V1BJkfLr8EDAB-45" value="&lt;b&gt;&lt;u&gt;guest_id&lt;/u&gt;&lt;/b&gt;" style="ellipse;whiteSpace=wrap;html=1;points=[[0.5,0.5,0,0,0]];fillColor=#60a917;fontColor=#ffffff;strokeColor=#2D7600;" parent="1" vertex="1">
          <mxGeometry x="1920" y="910" width="120" height="80" as="geometry" />
        </mxCell>
        <mxCell id="pQVU_d5V1BJkfLr8EDAB-46" value="Rooms" style="rounded=0;whiteSpace=wrap;html=1;points=[[0.5,0.5,0,0,0]];fillColor=#0050ef;fontColor=#ffffff;strokeColor=#001DBC;" parent="1" vertex="1">
          <mxGeometry x="1770" y="465" width="120" height="60" as="geometry" />
        </mxCell>
        <mxCell id="pQVU_d5V1BJkfLr8EDAB-47" value="Bookings" style="rounded=0;whiteSpace=wrap;html=1;points=[[0.5,0.5,0,0,0]];fillColor=#f0a30a;fontColor=#000000;strokeColor=#BD7000;" parent="1" vertex="1">
          <mxGeometry x="1110" y="740" width="120" height="60" as="geometry" />
        </mxCell>
        <mxCell id="pQVU_d5V1BJkfLr8EDAB-48" value="PaymentRooms" style="rounded=0;whiteSpace=wrap;html=1;points=[[0.5,0.5,0,0,0]];fillColor=#b0e3e6;strokeColor=#0e8088;" parent="1" vertex="1">
          <mxGeometry x="490" y="740" width="120" height="60" as="geometry" />
        </mxCell>
        <mxCell id="pQVU_d5V1BJkfLr8EDAB-49" value="name" style="ellipse;whiteSpace=wrap;html=1;points=[[0.5,0.5,0,0,0]];fillColor=#60a917;fontColor=#ffffff;strokeColor=#2D7600;" parent="1" vertex="1">
          <mxGeometry x="2000" y="1010" width="120" height="80" as="geometry" />
        </mxCell>
        <mxCell id="pQVU_d5V1BJkfLr8EDAB-50" value="email" style="ellipse;whiteSpace=wrap;html=1;points=[[0.5,0.5,0,0,0]];fillColor=#60a917;fontColor=#ffffff;strokeColor=#2D7600;" parent="1" vertex="1">
          <mxGeometry x="2100" y="1110" width="120" height="80" as="geometry" />
        </mxCell>
        <mxCell id="pQVU_d5V1BJkfLr8EDAB-51" value="phone_number" style="ellipse;whiteSpace=wrap;html=1;points=[[0.5,0.5,0,0,0]];fillColor=#60a917;fontColor=#ffffff;strokeColor=#2D7600;" parent="1" vertex="1">
          <mxGeometry x="2030" y="1200" width="120" height="80" as="geometry" />
        </mxCell>
        <mxCell id="pQVU_d5V1BJkfLr8EDAB-52" value="address" style="ellipse;whiteSpace=wrap;html=1;points=[[0.5,0.5,0,0,0]];fillColor=#60a917;fontColor=#ffffff;strokeColor=#2D7600;" parent="1" vertex="1">
          <mxGeometry x="1900" y="1280" width="120" height="80" as="geometry" />
        </mxCell>
        <mxCell id="pQVU_d5V1BJkfLr8EDAB-53" value="&lt;b&gt;&lt;u&gt;room_id&lt;/u&gt;&lt;/b&gt;" style="ellipse;whiteSpace=wrap;html=1;points=[[0.5,0.5,0,0,0]];fillColor=#1ba1e2;fontColor=#ffffff;strokeColor=#006EAF;" parent="1" vertex="1">
          <mxGeometry x="1830" y="285" width="120" height="80" as="geometry" />
        </mxCell>
        <mxCell id="pQVU_d5V1BJkfLr8EDAB-54" value="room_type" style="ellipse;whiteSpace=wrap;html=1;points=[[0.5,0.5,0,0,0]];fillColor=#1ba1e2;fontColor=#ffffff;strokeColor=#006EAF;" parent="1" vertex="1">
          <mxGeometry x="1970" y="335" width="120" height="80" as="geometry" />
        </mxCell>
        <mxCell id="pQVU_d5V1BJkfLr8EDAB-55" value="price" style="ellipse;whiteSpace=wrap;html=1;points=[[0.5,0.5,0,0,0]];fillColor=#1ba1e2;fontColor=#ffffff;strokeColor=#006EAF;" parent="1" vertex="1">
          <mxGeometry x="2050" y="415" width="120" height="80" as="geometry" />
        </mxCell>
        <mxCell id="pQVU_d5V1BJkfLr8EDAB-56" value="availability" style="ellipse;whiteSpace=wrap;html=1;points=[[0.5,0.5,0,0,0]];fillColor=#1ba1e2;fontColor=#ffffff;strokeColor=#006EAF;" parent="1" vertex="1">
          <mxGeometry x="2050" y="505" width="120" height="80" as="geometry" />
        </mxCell>
        <mxCell id="pQVU_d5V1BJkfLr8EDAB-57" value="image" style="ellipse;whiteSpace=wrap;html=1;points=[[0.5,0.5,0,0,0]];fillColor=#1ba1e2;fontColor=#ffffff;strokeColor=#006EAF;" parent="1" vertex="1">
          <mxGeometry x="1870" y="675" width="120" height="80" as="geometry" />
        </mxCell>
        <mxCell id="pQVU_d5V1BJkfLr8EDAB-58" value="&lt;b&gt;&lt;u&gt;booking_id&lt;/u&gt;&lt;/b&gt;" style="ellipse;whiteSpace=wrap;html=1;points=[[0.5,0.5,0,0,0]];fillColor=#fa6800;strokeColor=#C73500;fontColor=#000000;" parent="1" vertex="1">
          <mxGeometry x="710" y="560" width="120" height="80" as="geometry" />
        </mxCell>
        <mxCell id="pQVU_d5V1BJkfLr8EDAB-59" value="guest_id" style="ellipse;whiteSpace=wrap;html=1;points=[[0.5,0.5,0,0,0]];fillColor=#fa6800;strokeColor=#C73500;fontColor=#000000;" parent="1" vertex="1">
          <mxGeometry x="820" y="480" width="120" height="80" as="geometry" />
        </mxCell>
        <mxCell id="pQVU_d5V1BJkfLr8EDAB-60" value="room_id" style="ellipse;whiteSpace=wrap;html=1;points=[[0.5,0.5,0,0,0]];fillColor=#fa6800;strokeColor=#C73500;fontColor=#000000;" parent="1" vertex="1">
          <mxGeometry x="950" y="430" width="120" height="80" as="geometry" />
        </mxCell>
        <mxCell id="pQVU_d5V1BJkfLr8EDAB-61" value="checkin_date" style="ellipse;whiteSpace=wrap;html=1;points=[[0.5,0.5,0,0,0]];fillColor=#fa6800;strokeColor=#C73500;fontColor=#000000;" parent="1" vertex="1">
          <mxGeometry x="1240" y="430" width="120" height="80" as="geometry" />
        </mxCell>
        <mxCell id="pQVU_d5V1BJkfLr8EDAB-62" value="checkout_date" style="ellipse;whiteSpace=wrap;html=1;points=[[0.5,0.5,0,0,0]];fillColor=#fa6800;strokeColor=#C73500;fontColor=#000000;" parent="1" vertex="1">
          <mxGeometry x="1380" y="480" width="120" height="80" as="geometry" />
        </mxCell>
        <mxCell id="pQVU_d5V1BJkfLr8EDAB-63" value="booking_status" style="ellipse;whiteSpace=wrap;html=1;points=[[0.5,0.5,0,0,0]];fillColor=#fa6800;strokeColor=#C73500;fontColor=#000000;" parent="1" vertex="1">
          <mxGeometry x="1470" y="560" width="120" height="80" as="geometry" />
        </mxCell>
        <mxCell id="pQVU_d5V1BJkfLr8EDAB-64" value="&lt;b&gt;&lt;u&gt;payment_id&lt;/u&gt;&lt;/b&gt;" style="ellipse;whiteSpace=wrap;html=1;points=[[0.5,0.5,0,0,0]];fillColor=#b0e3e6;strokeColor=#0e8088;" parent="1" vertex="1">
          <mxGeometry x="80" y="820" width="120" height="80" as="geometry" />
        </mxCell>
        <mxCell id="pQVU_d5V1BJkfLr8EDAB-65" value="booking_id" style="ellipse;whiteSpace=wrap;html=1;points=[[0.5,0.5,0,0,0]];fillColor=#b0e3e6;strokeColor=#0e8088;" parent="1" vertex="1">
          <mxGeometry x="230" y="890" width="120" height="80" as="geometry" />
        </mxCell>
        <mxCell id="pQVU_d5V1BJkfLr8EDAB-66" value="payment_method_id" style="ellipse;whiteSpace=wrap;html=1;points=[[0.5,0.5,0,0,0]];fillColor=#b0e3e6;strokeColor=#0e8088;" parent="1" vertex="1">
          <mxGeometry x="360" y="950" width="120" height="80" as="geometry" />
        </mxCell>
        <mxCell id="pQVU_d5V1BJkfLr8EDAB-67" value="amount_paid" style="ellipse;whiteSpace=wrap;html=1;points=[[0.5,0.5,0,0,0]];fillColor=#b0e3e6;strokeColor=#0e8088;" parent="1" vertex="1">
          <mxGeometry x="530" y="960" width="120" height="80" as="geometry" />
        </mxCell>
        <mxCell id="pQVU_d5V1BJkfLr8EDAB-68" value="payment_date" style="ellipse;whiteSpace=wrap;html=1;points=[[0.5,0.5,0,0,0]];fillColor=#b0e3e6;strokeColor=#0e8088;" parent="1" vertex="1">
          <mxGeometry x="700" y="910" width="120" height="80" as="geometry" />
        </mxCell>
        <mxCell id="pQVU_d5V1BJkfLr8EDAB-69" value="payment_status" style="ellipse;whiteSpace=wrap;html=1;points=[[0.5,0.5,0,0,0]];fillColor=#b0e3e6;strokeColor=#0e8088;" parent="1" vertex="1">
          <mxGeometry x="790" y="830" width="120" height="80" as="geometry" />
        </mxCell>
        <mxCell id="pQVU_d5V1BJkfLr8EDAB-70" value="Employees" style="rounded=0;whiteSpace=wrap;html=1;points=[[0.5,0.5,0,0,0]];fillColor=#fad9d5;strokeColor=#ae4132;" parent="1" vertex="1">
          <mxGeometry x="1110" y="1320" width="120" height="60" as="geometry" />
        </mxCell>
        <mxCell id="pQVU_d5V1BJkfLr8EDAB-71" value="&lt;b&gt;&lt;u&gt;employee_id&lt;/u&gt;&lt;/b&gt;" style="ellipse;whiteSpace=wrap;html=1;points=[[0.5,0.5,0,0,0]];fillColor=#fad9d5;strokeColor=#ae4132;" parent="1" vertex="1">
          <mxGeometry x="1450" y="1380" width="120" height="80" as="geometry" />
        </mxCell>
        <mxCell id="pQVU_d5V1BJkfLr8EDAB-72" value="name" style="ellipse;whiteSpace=wrap;html=1;points=[[0.5,0.5,0,0,0]];fillColor=#fad9d5;strokeColor=#ae4132;" parent="1" vertex="1">
          <mxGeometry x="1360" y="1460" width="120" height="80" as="geometry" />
        </mxCell>
        <mxCell id="pQVU_d5V1BJkfLr8EDAB-73" value="shift" style="ellipse;whiteSpace=wrap;html=1;points=[[0.5,0.5,0,0,0]];fillColor=#fad9d5;strokeColor=#ae4132;" parent="1" vertex="1">
          <mxGeometry x="1110" y="1610" width="120" height="80" as="geometry" />
        </mxCell>
        <mxCell id="pQVU_d5V1BJkfLr8EDAB-74" value="email" style="ellipse;whiteSpace=wrap;html=1;points=[[0.5,0.5,0,0,0]];fillColor=#fad9d5;strokeColor=#ae4132;" parent="1" vertex="1">
          <mxGeometry x="980" y="1570" width="120" height="80" as="geometry" />
        </mxCell>
        <mxCell id="pQVU_d5V1BJkfLr8EDAB-75" value="phone_number" style="ellipse;whiteSpace=wrap;html=1;points=[[0.5,0.5,0,0,0]];fillColor=#fad9d5;strokeColor=#ae4132;" parent="1" vertex="1">
          <mxGeometry x="870" y="1480" width="120" height="80" as="geometry" />
        </mxCell>
        <mxCell id="pQVU_d5V1BJkfLr8EDAB-76" value="address" style="ellipse;whiteSpace=wrap;html=1;points=[[0.5,0.5,0,0,0]];fillColor=#fad9d5;strokeColor=#ae4132;" parent="1" vertex="1">
          <mxGeometry x="770" y="1400" width="120" height="80" as="geometry" />
        </mxCell>
        <mxCell id="pQVU_d5V1BJkfLr8EDAB-77" value="employee_id" style="ellipse;whiteSpace=wrap;html=1;points=[[0.5,0.5,0,0,0]];fillColor=#fa6800;strokeColor=#C73500;fontColor=#000000;" parent="1" vertex="1">
          <mxGeometry x="1100" y="405" width="120" height="80" as="geometry" />
        </mxCell>
        <mxCell id="pQVU_d5V1BJkfLr8EDAB-78" value="guest_id" style="rhombus;whiteSpace=wrap;html=1;fillColor=#a20025;fontColor=#ffffff;strokeColor=#6F0000;points=[[0.5,0.5,0,0,0]];" parent="1" vertex="1">
          <mxGeometry x="1530" y="880" width="80" height="80" as="geometry" />
        </mxCell>
        <mxCell id="pQVU_d5V1BJkfLr8EDAB-79" value="bed_count" style="ellipse;whiteSpace=wrap;html=1;points=[[0.5,0.5,0,0,0]];fillColor=#1ba1e2;fontColor=#ffffff;strokeColor=#006EAF;" parent="1" vertex="1">
          <mxGeometry x="1970" y="595" width="120" height="80" as="geometry" />
        </mxCell>
        <mxCell id="pQVU_d5V1BJkfLr8EDAB-80" value="room_id" style="rhombus;whiteSpace=wrap;html=1;fillColor=#a20025;fontColor=#ffffff;strokeColor=#6F0000;points=[[0.5,0.5,0,0,0]];" parent="1" vertex="1">
          <mxGeometry x="1590" y="675" width="80" height="80" as="geometry" />
        </mxCell>
        <mxCell id="pQVU_d5V1BJkfLr8EDAB-81" value="position" style="ellipse;whiteSpace=wrap;html=1;points=[[0.5,0.5,0,0,0]];fillColor=#fad9d5;strokeColor=#ae4132;" parent="1" vertex="1">
          <mxGeometry x="1260" y="1570" width="120" height="80" as="geometry" />
        </mxCell>
        <mxCell id="pQVU_d5V1BJkfLr8EDAB-82" value="employee_id" style="rhombus;whiteSpace=wrap;html=1;fillColor=#a20025;fontColor=#ffffff;strokeColor=#6F0000;points=[[0.5,0.5,0,0,0]];" parent="1" vertex="1">
          <mxGeometry x="1130" y="960" width="80" height="80" as="geometry" />
        </mxCell>
        <mxCell id="pQVU_d5V1BJkfLr8EDAB-83" value="booking_id" style="rhombus;whiteSpace=wrap;html=1;fillColor=#a20025;fontColor=#ffffff;strokeColor=#6F0000;points=[[0.5,0.5,0,0,0]];" parent="1" vertex="1">
          <mxGeometry x="830" y="730" width="80" height="80" as="geometry" />
        </mxCell>
        <mxCell id="pQVU_d5V1BJkfLr8EDAB-84" value="1" style="text;html=1;align=center;verticalAlign=middle;whiteSpace=wrap;rounded=0;fontSize=24;fontStyle=1" parent="1" vertex="1">
          <mxGeometry x="610" y="740" width="60" height="30" as="geometry" />
        </mxCell>
        <mxCell id="pQVU_d5V1BJkfLr8EDAB-85" value="1" style="text;html=1;align=center;verticalAlign=middle;whiteSpace=wrap;rounded=0;fontSize=24;fontStyle=1" parent="1" vertex="1">
          <mxGeometry x="1050" y="770" width="60" height="30" as="geometry" />
        </mxCell>
        <mxCell id="pQVU_d5V1BJkfLr8EDAB-86" value="N" style="text;html=1;align=center;verticalAlign=middle;whiteSpace=wrap;rounded=0;fontSize=24;fontStyle=1" parent="1" vertex="1">
          <mxGeometry x="1240" y="770" width="60" height="30" as="geometry" />
        </mxCell>
        <mxCell id="pQVU_d5V1BJkfLr8EDAB-87" value="1" style="text;html=1;align=center;verticalAlign=middle;whiteSpace=wrap;rounded=0;fontSize=24;fontStyle=1" parent="1" vertex="1">
          <mxGeometry x="1700" y="1030" width="60" height="30" as="geometry" />
        </mxCell>
        <mxCell id="pQVU_d5V1BJkfLr8EDAB-88" value="N" style="text;html=1;align=center;verticalAlign=middle;whiteSpace=wrap;rounded=0;fontSize=24;fontStyle=1" parent="1" vertex="1">
          <mxGeometry x="1250" y="725" width="60" height="30" as="geometry" />
        </mxCell>
        <mxCell id="pQVU_d5V1BJkfLr8EDAB-89" value="1" style="text;html=1;align=center;verticalAlign=middle;whiteSpace=wrap;rounded=0;fontSize=24;fontStyle=1" parent="1" vertex="1">
          <mxGeometry x="1710" y="525" width="60" height="30" as="geometry" />
        </mxCell>
        <mxCell id="pQVU_d5V1BJkfLr8EDAB-90" value="N" style="text;html=1;align=center;verticalAlign=middle;whiteSpace=wrap;rounded=0;fontSize=24;fontStyle=1" parent="1" vertex="1">
          <mxGeometry x="1170" y="800" width="60" height="30" as="geometry" />
        </mxCell>
        <mxCell id="pQVU_d5V1BJkfLr8EDAB-91" value="1" style="text;html=1;align=center;verticalAlign=middle;whiteSpace=wrap;rounded=0;fontSize=24;fontStyle=1" parent="1" vertex="1">
          <mxGeometry x="1110" y="1290" width="60" height="30" as="geometry" />
        </mxCell>
        <mxCell id="pQVU_d5V1BJkfLr8EDAB-92" value="" style="endArrow=none;html=1;rounded=0;exitX=0.5;exitY=0.5;exitDx=0;exitDy=0;exitPerimeter=0;entryX=0.5;entryY=0.5;entryDx=0;entryDy=0;entryPerimeter=0;fillColor=#1ba1e2;strokeColor=#006EAF;" parent="1" source="pQVU_d5V1BJkfLr8EDAB-98" target="pQVU_d5V1BJkfLr8EDAB-95" edge="1">
          <mxGeometry width="50" height="50" relative="1" as="geometry">
            <mxPoint x="940" y="398" as="sourcePoint" />
            <mxPoint x="990" y="348" as="targetPoint" />
          </mxGeometry>
        </mxCell>
        <mxCell id="pQVU_d5V1BJkfLr8EDAB-93" value="" style="endArrow=none;html=1;rounded=0;entryX=0.5;entryY=0.5;entryDx=0;entryDy=0;entryPerimeter=0;exitX=0.5;exitY=0.5;exitDx=0;exitDy=0;exitPerimeter=0;fillColor=#1ba1e2;strokeColor=#006EAF;" parent="1" source="pQVU_d5V1BJkfLr8EDAB-95" target="pQVU_d5V1BJkfLr8EDAB-97" edge="1">
          <mxGeometry width="50" height="50" relative="1" as="geometry">
            <mxPoint x="940" y="398" as="sourcePoint" />
            <mxPoint x="990" y="348" as="targetPoint" />
          </mxGeometry>
        </mxCell>
        <mxCell id="pQVU_d5V1BJkfLr8EDAB-94" value="" style="endArrow=none;html=1;rounded=0;entryX=0.5;entryY=0.5;entryDx=0;entryDy=0;entryPerimeter=0;exitX=0.5;exitY=0.5;exitDx=0;exitDy=0;exitPerimeter=0;fillColor=#1ba1e2;strokeColor=#006EAF;" parent="1" source="pQVU_d5V1BJkfLr8EDAB-95" target="pQVU_d5V1BJkfLr8EDAB-96" edge="1">
          <mxGeometry width="50" height="50" relative="1" as="geometry">
            <mxPoint x="940" y="398" as="sourcePoint" />
            <mxPoint x="990" y="348" as="targetPoint" />
          </mxGeometry>
        </mxCell>
        <mxCell id="pQVU_d5V1BJkfLr8EDAB-95" value="PaymentMethods" style="rounded=0;whiteSpace=wrap;html=1;points=[[0.5,0.5,0,0,0]];fillColor=#1ba1e2;fontColor=#ffffff;strokeColor=#006EAF;" parent="1" vertex="1">
          <mxGeometry x="490" y="328" width="120" height="60" as="geometry" />
        </mxCell>
        <mxCell id="pQVU_d5V1BJkfLr8EDAB-96" value="&lt;b&gt;&lt;u&gt;payment_method_id&lt;/u&gt;&lt;/b&gt;" style="ellipse;whiteSpace=wrap;html=1;points=[[0.5,0.5,0,0,0]];fillColor=#1ba1e2;strokeColor=#006EAF;fontColor=#ffffff;" parent="1" vertex="1">
          <mxGeometry x="380" y="110" width="120" height="80" as="geometry" />
        </mxCell>
        <mxCell id="pQVU_d5V1BJkfLr8EDAB-97" value="method_name" style="ellipse;whiteSpace=wrap;html=1;points=[[0.5,0.5,0,0,0]];fillColor=#1ba1e2;strokeColor=#006EAF;fontColor=#ffffff;" parent="1" vertex="1">
          <mxGeometry x="490" y="30" width="120" height="80" as="geometry" />
        </mxCell>
        <mxCell id="pQVU_d5V1BJkfLr8EDAB-98" value="description" style="ellipse;whiteSpace=wrap;html=1;points=[[0.5,0.5,0,0,0]];fillColor=#1ba1e2;strokeColor=#006EAF;fontColor=#ffffff;" parent="1" vertex="1">
          <mxGeometry x="610" y="110" width="120" height="80" as="geometry" />
        </mxCell>
        <mxCell id="pQVU_d5V1BJkfLr8EDAB-99" value="payment_method_id" style="rhombus;whiteSpace=wrap;html=1;fillColor=#a20025;fontColor=#ffffff;strokeColor=#6F0000;points=[[0.5,0.5,0,0,0]];" parent="1" vertex="1">
          <mxGeometry x="472.5" y="467.5" width="155" height="155" as="geometry" />
        </mxCell>
        <mxCell id="pQVU_d5V1BJkfLr8EDAB-100" value="N" style="text;html=1;align=center;verticalAlign=middle;whiteSpace=wrap;rounded=0;fontSize=24;fontStyle=1" parent="1" vertex="1">
          <mxGeometry x="490" y="710" width="60" height="30" as="geometry" />
        </mxCell>
        <mxCell id="pQVU_d5V1BJkfLr8EDAB-101" value="1" style="text;html=1;align=center;verticalAlign=middle;whiteSpace=wrap;rounded=0;fontSize=24;fontStyle=1" parent="1" vertex="1">
          <mxGeometry x="490" y="385" width="60" height="30" as="geometry" />
        </mxCell>
      </root>
    </mxGraphModel>
  </diagram>
</mxfile>
